<svg version="1.1" id="Layer_1" xmlns="http://www.w3.org/2000/svg" x="0px"
     y="0px"
     width="100%" viewBox="0 0 296 240" xml:space="preserve">

    <rect x="80" y="0" width="96" height="8" fill="#3A444C"/>

    <rect x="56" y="8" width="24" height="8" fill="#3A444C"/>
    <rect x="80" y="8" width="96" height="8" fill="#ADB1B2"/>
    <rect x="176" y="8" width="24" height="8" fill="#3A444C"/>

    <rect x="40" y="16" width="16" height="8" fill="#3A444C"/>
    <rect x="56" y="16" width="40" height="8" fill="#ADB1B2"/>
    <rect x="96" y="16" width="64" height="8" fill="#8F9496"/>
    <rect x="160" y="16" width="40" height="8" fill="#ADB1B2"/>
    <rect x="200" y="16" width="16" height="8" fill="#3A444C"/>

    <rect x="32" y="24" width="8" height="8" fill="#3A444C"/>
    <rect x="40" y="24" width="16" height="8" fill="#ADB1B2"/>
    <rect x="56" y="24" width="16" height="8" fill="#8F9496"/>
    <rect x="72" y="24" width="8" height="8" fill="#ADB1B2"/>
    <rect x="80" y="24" width="16" height="8" fill="#8F9496"/>
    <rect x="96" y="24" width="64" height="8" fill="#ADB1B2"/>
    <rect x="160" y="24" width="16" height="8" fill="#8F9496"/>
    <rect x="176" y="24" width="8" height="8" fill="#ADB1B2"/>
    <rect x="184" y="24" width="16" height="8" fill="#8F9496"/>
    <rect x="200" y="24" width="16" height="8" fill="#ADB1B2"/>
    <rect x="216" y="24" width="8" height="8" fill="#3A444C"/>

    <rect x="24" y="32" width="8" height="8" fill="#3A444C"/>
    <rect x="32" y="32" width="16" height="8" fill="#ADB1B2"/>
    <rect x="48" y="32" width="8" height="8" fill="#8F9496"/>
    <rect x="56" y="32" width="16" height="8" fill="#ADB1B2"/>
    <rect x="72" y="32" width="8" height="8" fill="#8F9496"/>
    <rect x="80" y="32" width="16" height="8" fill="#ADB1B2"/>
    <rect x="96" y="32" width="64" height="8" fill="#F1A842"/>
    <rect x="160" y="32" width="16" height="8" fill="#ADB1B2"/>
    <rect x="176" y="32" width="8" height="8" fill="#8F9496"/>
    <rect x="184" y="32" width="16" height="8" fill="#ADB1B2"/>
    <rect x="200" y="32" width="8" height="8" fill="#8F9496"/>
    <rect x="208" y="32" width="16" height="8" fill="#ADB1B2"/>
    <rect x="224" y="32" width="8" height="8" fill="#3A444C"/>

    <rect x="16" y="40" width="8" height="8" fill="#3A444C"/>
    <rect x="24" y="40" width="16" height="8" fill="#ADB1B2"/>
    <rect x="40" y="40" width="8" height="8" fill="#8F9496"/>
    <rect x="48" y="40" width="8" height="8" fill="#ADB1B2"/>
    <rect x="56" y="40" width="8" height="8" fill="#8F9496"/>
    <rect x="64" y="40" width="16" height="8" fill="#ADB1B2"/>
    <rect x="80" y="40" width="16" height="8" fill="#F1A842"/>
    <rect x="96" y="40" width="64" height="8" fill="#2D71AD"/>
    <rect x="160" y="40" width="16" height="8" fill="#F1A842"/>
    <rect x="176" y="40" width="16" height="8" fill="#ADB1B2"/>
    <rect x="192" y="40" width="8" height="8" fill="#8F9496"/>
    <rect x="200" y="40" width="8" height="8" fill="#ADB1B2"/>
    <rect x="208" y="40" width="8" height="8" fill="#8F9496"/>
    <rect x="216" y="40" width="16" height="8" fill="#ADB1B2"/>
    <rect x="232" y="40" width="8" height="8" fill="#3A444C"/>

    <rect x="8" y="48" width="8" height="8" fill="#3A444C"/>
    <rect x="16" y="48" width="16" height="8" fill="#ADB1B2"/>
    <rect x="32" y="48" width="8" height="8" fill="#8F9496"/>
    <rect x="40" y="48" width="8" height="8" fill="#ADB1B2"/>
    <rect x="48" y="48" width="8" height="8" fill="#8F9496"/>
    <rect x="56" y="48" width="16" height="8" fill="#ADB1B2"/>
    <rect x="72" y="48" width="8" height="8" fill="#F1A842"/>
    <rect x="80" y="48" width="24" height="8" fill="#2D71AD"/>
    <rect x="104" y="48" width="32" height="8" fill="#3A444C"/>
    <rect x="136" y="48" width="40" height="8" fill="#2D71AD"/>
    <rect x="176" y="48" width="8" height="8" fill="#F1A842"/>
    <rect x="184" y="48" width="16" height="8" fill="#ADB1B2"/>
    <rect x="200" y="48" width="8" height="8" fill="#8F9496"/>
    <rect x="208" y="48" width="8" height="8" fill="#ADB1B2"/>
    <rect x="216" y="48" width="8" height="8" fill="#8F9496"/>
    <rect x="224" y="48" width="16" height="8" fill="#ADB1B2"/>
    <rect x="240" y="48" width="8" height="8" fill="#3A444C"/>

    <rect x="8" y="56" width="8" height="8" fill="#3A444C"/>
    <rect x="16" y="56" width="8" height="8" fill="#ADB1B2"/>
    <rect x="24" y="56" width="8" height="8" fill="#8F9496"/>
    <rect x="32" y="56" width="8" height="8" fill="#ADB1B2"/>
    <rect x="40" y="56" width="8" height="8" fill="#8F9496"/>
    <rect x="48" y="56" width="16" height="8" fill="#ADB1B2"/>
    <rect x="64" y="56" width="8" height="8" fill="#F1A842"/>
    <rect x="72" y="56" width="24" height="8" fill="#2D71AD"/>
    <rect x="96" y="56" width="8" height="8" fill="#3A444C"/>
    <rect x="104" y="56" width="32" height="8" fill="#46A7D3"/>
    <rect x="136" y="56" width="8" height="8" fill="#3A444C"/>
    <rect x="144" y="56" width="40" height="8" fill="#2D71AD"/>
    <rect x="184" y="56" width="8" height="8" fill="#F1A842"/>
    <rect x="192" y="56" width="16" height="8" fill="#ADB1B2"/>
    <rect x="208" y="56" width="8" height="8" fill="#8F9496"/>
    <rect x="216" y="56" width="8" height="8" fill="#ADB1B2"/>
    <rect x="224" y="56" width="8" height="8" fill="#8F9496"/>
    <rect x="232" y="56" width="8" height="8" fill="#ADB1B2"/>
    <rect x="240" y="56" width="8" height="8" fill="#3A444C"/>

    <rect x="0" y="64" width="8" height="8" fill="#3A444C"/>
    <rect x="8" y="64" width="16" height="8" fill="#ADB1B2"/>
    <rect x="24" y="64" width="8" height="8" fill="#8F9496"/>
    <rect x="32" y="64" width="8" height="8" fill="#ADB1B2"/>
    <rect x="40" y="64" width="8" height="8" fill="#8F9496"/>
    <rect x="48" y="64" width="8" height="8" fill="#ADB1B2"/>
    <rect x="56" y="64" width="8" height="8" fill="#F1A842"/>
    <rect x="64" y="64" width="24" height="8" fill="#2D71AD"/>
    <rect x="88" y="64" width="8" height="8" fill="#3A444C"/>
    <rect x="96" y="64" width="48" height="8" fill="#46A7D3"/>
    <rect x="144" y="64" width="8" height="8" fill="#3A444C"/>
    <rect x="152" y="64" width="40" height="8" fill="#2D71AD"/>
    <rect x="192" y="64" width="8" height="8" fill="#F1A842"/>
    <rect x="200" y="64" width="8" height="8" fill="#ADB1B2"/>
    <rect x="208" y="64" width="8" height="8" fill="#8F9496"/>
    <rect x="216" y="64" width="8" height="8" fill="#ADB1B2"/>
    <rect x="224" y="64" width="8" height="8" fill="#8F9496"/>
    <rect x="232" y="64" width="16" height="8" fill="#ADB1B2"/>
    <rect x="248" y="64" width="8" height="8" fill="#3A444C"/>

    <rect x="0" y="72" width="8" height="8" fill="#3A444C"/>
    <rect x="8" y="72" width="16" height="8" fill="#ADB1B2"/>
    <rect x="24" y="72" width="8" height="8" fill="#8F9496"/>
    <rect x="32" y="72" width="8" height="8" fill="#ADB1B2"/>
    <rect x="40" y="72" width="8" height="8" fill="#8F9496"/>
    <rect x="48" y="72" width="8" height="8" fill="#ADB1B2"/>
    <rect x="56" y="72" width="8" height="8" fill="#F1A842"/>
    <rect x="64" y="72" width="24" height="8" fill="#2D71AD"/>
    <rect x="88" y="72" width="8" height="8" fill="#3A444C"/>
    <rect x="96" y="72" width="24" height="8" fill="#46A7D3"/>
    <rect x="120" y="72" width="8" height="8" fill="#3A444C"/>
    <rect x="128" y="72" width="16" height="8" fill="#46A7D3"/>
    <rect x="144" y="72" width="16" height="8" fill="#3A444C"/>
    <rect x="160" y="72" width="32" height="8" fill="#2D71AD"/>
    <rect x="192" y="72" width="8" height="8" fill="#F1A842"/>
    <rect x="200" y="72" width="8" height="8" fill="#ADB1B2"/>
    <rect x="208" y="72" width="8" height="8" fill="#8F9496"/>
    <rect x="216" y="72" width="8" height="8" fill="#ADB1B2"/>
    <rect x="224" y="72" width="8" height="8" fill="#8F9496"/>
    <rect x="232" y="72" width="16" height="8" fill="#ADB1B2"/>
    <rect x="248" y="72" width="8" height="8" fill="#3A444C"/>

    <rect x="0" y="80" width="8" height="8" fill="#3A444C"/>
    <rect x="8" y="80" width="16" height="8" fill="#ADB1B2"/>
    <rect x="24" y="80" width="8" height="8" fill="#8F9496"/>
    <rect x="32" y="80" width="8" height="8" fill="#ADB1B2"/>
    <rect x="40" y="80" width="8" height="8" fill="#8F9496"/>
    <rect x="48" y="80" width="8" height="8" fill="#ADB1B2"/>
    <rect x="56" y="80" width="8" height="8" fill="#F1A842"/>
    <rect x="64" y="80" width="24" height="8" fill="#2D71AD"/>
    <rect x="88" y="80" width="8" height="8" fill="#3A444C"/>
    <rect x="96" y="80" width="40" height="8" fill="#46A7D3"/>
    <rect x="136" y="80" width="8" height="8" fill="#3A444C"/>
    <rect x="144" y="80" width="16" height="8" fill="#F1A842"/>
    <rect x="160" y="80" width="16" height="8" fill="#3A444C"/>
    <rect x="176" y="80" width="16" height="8" fill="#2D71AD"/>
    <rect x="192" y="80" width="8" height="8" fill="#F1A842"/>
    <rect x="200" y="80" width="8" height="8" fill="#ADB1B2"/>
    <rect x="208" y="80" width="8" height="8" fill="#8F9496"/>
    <rect x="216" y="80" width="8" height="8" fill="#ADB1B2"/>
    <rect x="224" y="80" width="8" height="8" fill="#8F9496"/>
    <rect x="232" y="80" width="16" height="8" fill="#ADB1B2"/>
    <rect x="248" y="80" width="8" height="8" fill="#3A444C"/>

    <rect x="0" y="88" width="8" height="8" fill="#3A444C"/>
    <rect x="8" y="88" width="16" height="8" fill="#ADB1B2"/>
    <rect x="24" y="88" width="8" height="8" fill="#8F9496"/>
    <rect x="32" y="88" width="8" height="8" fill="#ADB1B2"/>
    <rect x="40" y="88" width="8" height="8" fill="#8F9496"/>
    <rect x="48" y="88" width="8" height="8" fill="#ADB1B2"/>
    <rect x="56" y="88" width="8" height="8" fill="#F1A842"/>
    <rect x="64" y="88" width="24" height="8" fill="#2D71AD"/>
    <rect x="88" y="88" width="8" height="8" fill="#3A444C"/>
    <rect x="96" y="88" width="32" height="8" fill="#46A7D3"/>
    <rect x="128" y="88" width="8" height="8" fill="#3A444C"/>
    <rect x="136" y="88" width="40" height="8" fill="#F1A842"/>
    <rect x="176" y="88" width="16" height="8" fill="#2D71AD"/>
    <rect x="192" y="88" width="8" height="8" fill="#F1A842"/>
    <rect x="200" y="88" width="8" height="8" fill="#ADB1B2"/>
    <rect x="208" y="88" width="8" height="8" fill="#8F9496"/>
    <rect x="216" y="88" width="8" height="8" fill="#ADB1B2"/>
    <rect x="224" y="88" width="8" height="8" fill="#8F9496"/>
    <rect x="232" y="88" width="16" height="8" fill="#ADB1B2"/>
    <rect x="248" y="88" width="8" height="8" fill="#3A444C"/>

    <rect x="0" y="96" width="8" height="8" fill="#3A444C"/>
    <rect x="8" y="96" width="16" height="8" fill="#ADB1B2"/>
    <rect x="24" y="96" width="8" height="8" fill="#8F9496"/>
    <rect x="32" y="96" width="8" height="8" fill="#ADB1B2"/>
    <rect x="40" y="96" width="8" height="8" fill="#8F9496"/>
    <rect x="48" y="96" width="16" height="8" fill="#ADB1B2"/>
    <rect x="64" y="96" width="8" height="8" fill="#F1A842"/>
    <rect x="72" y="96" width="16" height="8" fill="#2D71AD"/>
    <rect x="88" y="96" width="8" height="8" fill="#3A444C"/>
    <rect x="96" y="96" width="32" height="8" fill="#46A7D3"/>
    <rect x="128" y="96" width="40" height="8" fill="#3A444C"/>
    <rect x="168" y="96" width="16" height="8" fill="#2D71AD"/>
    <rect x="184" y="96" width="8" height="8" fill="#F1A842"/>
    <rect x="192" y="96" width="16" height="8" fill="#ADB1B2"/>
    <rect x="208" y="96" width="8" height="8" fill="#8F9496"/>
    <rect x="216" y="96" width="8" height="8" fill="#ADB1B2"/>
    <rect x="224" y="96" width="8" height="8" fill="#8F9496"/>
    <rect x="232" y="96" width="16" height="8" fill="#ADB1B2"/>
    <rect x="248" y="96" width="8" height="8" fill="#3A444C"/>

    <rect x="0" y="104" width="16" height="8" fill="#3A444C"/>
    <rect x="16" y="104" width="8" height="8" fill="#ADB1B2"/>
    <rect x="24" y="104" width="16" height="8" fill="#8F9496"/>
    <rect x="40" y="104" width="8" height="8" fill="#ADB1B2"/>
    <rect x="48" y="104" width="8" height="8" fill="#8F9496"/>
    <rect x="56" y="104" width="16" height="8" fill="#ADB1B2"/>
    <rect x="72" y="104" width="8" height="8" fill="#F1A842"/>
    <rect x="80" y="104" width="16" height="8" fill="#2D71AD"/>
    <rect x="96" y="104" width="8" height="8" fill="#3A444C"/>
    <rect x="104" y="104" width="24" height="8" fill="#46A7D3"/>
    <rect x="128" y="104" width="8" height="8" fill="#3A444C"/>
    <rect x="136" y="104" width="40" height="8" fill="#2D71AD"/>
    <rect x="176" y="104" width="8" height="8" fill="#F1A842"/>
    <rect x="184" y="104" width="16" height="8" fill="#ADB1B2"/>
    <rect x="200" y="104" width="8" height="8" fill="#8F9496"/>
    <rect x="208" y="104" width="16" height="8" fill="#ADB1B2"/>
    <rect x="224" y="104" width="8" height="8" fill="#8F9496"/>
    <rect x="232" y="104" width="8" height="8" fill="#ADB1B2"/>
    <rect x="240" y="104" width="16" height="8" fill="#3A444C"/>

    <rect x="0" y="112" width="16" height="8" fill="#3A444C"/>
    <rect x="16" y="112" width="16" height="8" fill="#ADB1B2"/>
    <rect x="32" y="112" width="8" height="8" fill="#8F9496"/>
    <rect x="40" y="112" width="16" height="8" fill="#ADB1B2"/>
    <rect x="56" y="112" width="8" height="8" fill="#8F9496"/>
    <rect x="64" y="112" width="16" height="8" fill="#ADB1B2"/>
    <rect x="80" y="112" width="16" height="8" fill="#F1A842"/>
    <rect x="96" y="112" width="8" height="8" fill="#3A444C"/>
    <rect x="104" y="112" width="24" height="8" fill="#46A7D3"/>
    <rect x="128" y="112" width="8" height="8" fill="#3A444C"/>
    <rect x="136" y="112" width="24" height="8" fill="#2D71AD"/>
    <rect x="160" y="112" width="16" height="8" fill="#F1A842"/>
    <rect x="176" y="112" width="16" height="8" fill="#ADB1B2"/>
    <rect x="192" y="112" width="8" height="8" fill="#8F9496"/>
    <rect x="200" y="112" width="16" height="8" fill="#ADB1B2"/>
    <rect x="216" y="112" width="8" height="8" fill="#8F9496"/>
    <rect x="224" y="112" width="16" height="8" fill="#ADB1B2"/>
    <rect x="240" y="112" width="16" height="8" fill="#3A444C"/>

    <rect x="0" y="120" width="8" height="8" fill="#3A444C"/>
    <rect x="8" y="120" width="8" height="8" fill="#6F787B"/>
    <rect x="16" y="120" width="8" height="8" fill="#3A444C"/>
    <rect x="24" y="120" width="16" height="8" fill="#ADB1B2"/>
    <rect x="40" y="120" width="8" height="8" fill="#8F9496"/>
    <rect x="48" y="120" width="16" height="8" fill="#ADB1B2"/>
    <rect x="64" y="120" width="8" height="8" fill="#8F9496"/>
    <rect x="72" y="120" width="24" height="8" fill="#ADB1B2"/>
    <rect x="96" y="120" width="64" height="8" fill="#F1A842"/>
    <rect x="160" y="120" width="24" height="8" fill="#ADB1B2"/>
    <rect x="184" y="120" width="8" height="8" fill="#8F9496"/>
    <rect x="192" y="120" width="16" height="8" fill="#ADB1B2"/>
    <rect x="208" y="120" width="8" height="8" fill="#8F9496"/>
    <rect x="216" y="120" width="16" height="8" fill="#ADB1B2"/>
    <rect x="232" y="120" width="8" height="8" fill="#3A444C"/>
    <rect x="240" y="120" width="8" height="8" fill="#5E6464"/>
    <rect x="248" y="120" width="8" height="8" fill="#3A444C"/>

    <rect x="0" y="128" width="8" height="8" fill="#3A444C"/>
    <rect x="8" y="128" width="16" height="8" fill="#6F787B"/>
    <rect x="24" y="128" width="8" height="8" fill="#3A444C"/>
    <rect x="32" y="128" width="16" height="8" fill="#ADB1B2"/>
    <rect x="48" y="128" width="16" height="8" fill="#8F9496"/>
    <rect x="64" y="128" width="128" height="8" fill="#ADB1B2"/>
    <rect x="192" y="128" width="16" height="8" fill="#8F9496"/>
    <rect x="208" y="128" width="16" height="8" fill="#ADB1B2"/>
    <rect x="224" y="128" width="8" height="8" fill="#3A444C"/>
    <rect x="232" y="128" width="8" height="8" fill="#727B7E"/>
    <rect x="240" y="128" width="8" height="8" fill="#5E6464"/>
    <rect x="248" y="128" width="8" height="8" fill="#3A444C"/>

    <rect x="0" y="136" width="8" height="8" fill="#3A444C"/>
    <rect x="8" y="136" width="16" height="8" fill="#6F787B"/>
    <rect x="24" y="136" width="8" height="8" fill="#8F9496"/>
    <rect x="32" y="136" width="16" height="8" fill="#3A444C"/>
    <rect x="48" y="136" width="16" height="8" fill="#ADB1B2"/>
    <rect x="64" y="136" width="32" height="8" fill="#8F9496"/>
    <rect x="96" y="136" width="64" height="8" fill="#ADB1B2"/>
    <rect x="160" y="136" width="32" height="8" fill="#8F9496"/>
    <rect x="192" y="136" width="16" height="8" fill="#ADB1B2"/>
    <rect x="208" y="136" width="16" height="8" fill="#3A444C"/>
    <rect x="224" y="136" width="16" height="8" fill="#727B7E"/>
    <rect x="240" y="136" width="8" height="8" fill="#5E6464"/>
    <rect x="248" y="136" width="8" height="8" fill="#3A444C"/>

    <rect x="0" y="144" width="8" height="8" fill="#3A444C"/>
    <rect x="8" y="144" width="16" height="8" fill="#6F787B"/>
    <rect x="24" y="144" width="24" height="8" fill="#8F9496"/>
    <rect x="48" y="144" width="16" height="8" fill="#3A444C"/>
    <rect x="64" y="144" width="32" height="8" fill="#ADB1B2"/>
    <rect x="96" y="144" width="64" height="8" fill="#8F9496"/>
    <rect x="160" y="144" width="32" height="8" fill="#ADB1B2"/>
    <rect x="192" y="144" width="16" height="8" fill="#3A444C"/>
    <rect x="208" y="144" width="32" height="8" fill="#727B7E"/>
    <rect x="240" y="144" width="8" height="8" fill="#5E6464"/>
    <rect x="248" y="144" width="8" height="8" fill="#3A444C"/>

    <rect x="0" y="152" width="8" height="8" fill="#3A444C"/>
    <rect x="8" y="152" width="16" height="8" fill="#6F787B"/>
    <rect x="24" y="152" width="24" height="8" fill="#8F9496"/>
    <rect x="48" y="152" width="16" height="8" fill="#ADB1B2"/>
    <rect x="64" y="152" width="24" height="8" fill="#3A444C"/>
    <rect x="88" y="152" width="80" height="8" fill="#ADB1B2"/>
    <rect x="168" y="152" width="24" height="8" fill="#3A444C"/>
    <rect x="192" y="152" width="48" height="8" fill="#727B7E"/>
    <rect x="240" y="152" width="8" height="8" fill="#5E6464"/>
    <rect x="248" y="152" width="8" height="8" fill="#3A444C"/>

    <rect x="8" y="160" width="8" height="8" fill="#3A444C"/>
    <rect x="16" y="160" width="8" height="8" fill="#6F787B"/>
    <rect x="24" y="160" width="32" height="8" fill="#8F9496"/>
    <rect x="56" y="160" width="16" height="8" fill="#ADB1B2"/>
    <rect x="72" y="160" width="16" height="8" fill="#8F9496"/>
    <rect x="88" y="160" width="208" height="8" fill="#3A444C"/>

    <rect x="8" y="168" width="8" height="8" fill="#3A444C"/>
    <rect x="16" y="168" width="8" height="8" fill="#6F787B"/>
    <rect x="24" y="168" width="24" height="8" fill="#8F9496"/>
    <rect x="48" y="168" width="24" height="8" fill="#ADB1B2"/>
    <rect x="72" y="168" width="160" height="8" fill="#8F9496"/>
    <rect x="232" y="168" width="8" height="8" fill="#ADB1B2"/>
    <rect x="240" y="168" width="8" height="8" fill="#8F9496"/>
    <rect x="248" y="168" width="40" height="8" fill="#ADB1B2"/>
    <rect x="288" y="168" width="8" height="8" fill="#3A444C"/>

    <rect x="16" y="176" width="8" height="8" fill="#3A444C"/>
    <rect x="24" y="176" width="32" height="8" fill="#8F9496"/>
    <rect x="56" y="176" width="16" height="8" fill="#ADB1B2"/>
    <rect x="72" y="176" width="168" height="8" fill="#8F9496"/>
    <rect x="240" y="176" width="40" height="8" fill="#ADB1B2"/>
    <rect x="280" y="176" width="16" height="8" fill="#3A444C"/>

    <rect x="16" y="184" width="8" height="8" fill="#3A444C"/>
    <rect x="24" y="184" width="24" height="8" fill="#8F9496"/>
    <rect x="48" y="184" width="24" height="8" fill="#ADB1B2"/>
    <rect x="72" y="184" width="160" height="8" fill="#8F9496"/>
    <rect x="232" y="184" width="8" height="8" fill="#ADB1B2"/>
    <rect x="240" y="184" width="8" height="8" fill="#8F9496"/>
    <rect x="248" y="184" width="40" height="8" fill="#ADB1B2"/>
    <rect x="288" y="184" width="8" height="8" fill="#3A444C"/>

    <rect x="24" y="192" width="8" height="8" fill="#3A444C"/>
    <rect x="32" y="192" width="24" height="8" fill="#8F9496"/>
    <rect x="56" y="192" width="16" height="8" fill="#ADB1B2"/>
    <rect x="72" y="192" width="160" height="8" fill="#8F9496"/>
    <rect x="232" y="192" width="8" height="8" fill="#ADB1B2"/>
    <rect x="72" y="192" width="168" height="8" fill="#8F9496"/>
    <rect x="240" y="192" width="40" height="8" fill="#ADB1B2"/>
    <rect x="280" y="192" width="8" height="8" fill="#3A444C"/>

    <rect x="32" y="200" width="8" height="8" fill="#3A444C"/>
    <rect x="40" y="200" width="8" height="8" fill="#8F9496"/>
    <rect x="48" y="200" width="24" height="8" fill="#ADB1B2"/>
    <rect x="72" y="200" width="160" height="8" fill="#8F9496"/>
    <rect x="232" y="200" width="8" height="8" fill="#ADB1B2"/>
    <rect x="240" y="200" width="8" height="8" fill="#8F9496"/>
    <rect x="248" y="200" width="32" height="8" fill="#ADB1B2"/>
    <rect x="280" y="200" width="8" height="8" fill="#3A444C"/>

    <rect x="40" y="208" width="8" height="8" fill="#3A444C"/>
    <rect x="48" y="208" width="8" height="8" fill="#8F9496"/>
    <rect x="56" y="208" width="16" height="8" fill="#ADB1B2"/>
    <rect x="72" y="208" width="168" height="8" fill="#8F9496"/>
    <rect x="240" y="208" width="48" height="8" fill="#ADB1B2"/>
    <rect x="288" y="208" width="8" height="8" fill="#3A444C"/>

    <rect x="48" y="216" width="16" height="8" fill="#3A444C"/>
    <rect x="64" y="216" width="8" height="8" fill="#ADB1B2"/>
    <rect x="72" y="216" width="168" height="8" fill="#8F9496"/>
    <rect x="240" y="216" width="48" height="8" fill="#ADB1B2"/>
    <rect x="232" y="216" width="8" height="8" fill="#ADB1B2"/>
    <rect x="240" y="216" width="8" height="8" fill="#8F9496"/>
    <rect x="248" y="216" width="32" height="8" fill="#ADB1B2"/>
    <rect x="280" y="216" width="16" height="8" fill="#3A444C"/>

    <rect x="64" y="224" width="24" height="8" fill="#3A444C"/>
    <rect x="88" y="224" width="152" height="8" fill="#8F9496"/>
    <rect x="240" y="224" width="48" height="8" fill="#ADB1B2"/>
    <rect x="288" y="224" width="8" height="8" fill="#3A444C"/>

    <rect x="88" y="232" width="208" height="8" fill="#3A444C"/>
</svg>